<svg id="estimated-time" xmlns="http://www.w3.org/2000/svg" width="48" height="48" viewBox="0 0 48 48">
  <g id="Path_477" data-name="Path 477" fill="none">
    <path d="M24,0A24,24,0,1,1,0,24,24,24,0,0,1,24,0Z" stroke="none"/>
    <path d="M 24 1 C 20.89458084106445 1 17.8825798034668 1.607978820800781 15.04766845703125 2.807041168212891 C 12.3089714050293 3.965419769287109 9.849151611328125 5.623939514160156 7.736549377441406 7.736549377441406 C 5.623939514160156 9.849151611328125 3.965419769287109 12.3089714050293 2.807041168212891 15.04766845703125 C 1.607978820800781 17.8825798034668 1 20.89458084106445 1 24 C 1 27.10541915893555 1.607978820800781 30.1174201965332 2.807041168212891 32.95233154296875 C 3.965419769287109 35.6910285949707 5.623939514160156 38.15084838867188 7.736549377441406 40.26345062255859 C 9.849151611328125 42.37606048583984 12.3089714050293 44.03458023071289 15.04766845703125 45.19295883178711 C 17.8825798034668 46.39202117919922 20.89458084106445 47 24 47 C 27.10541915893555 47 30.1174201965332 46.39202117919922 32.95233154296875 45.19295883178711 C 35.6910285949707 44.03458023071289 38.15084838867188 42.37606048583984 40.26345062255859 40.26345062255859 C 42.37606048583984 38.15084838867188 44.03458023071289 35.6910285949707 45.19295883178711 32.95233154296875 C 46.39202117919922 30.1174201965332 47 27.10541915893555 47 24 C 47 20.89458084106445 46.39202117919922 17.8825798034668 45.19295883178711 15.04766845703125 C 44.03458023071289 12.3089714050293 42.37606048583984 9.849151611328125 40.26345062255859 7.736549377441406 C 38.15084838867188 5.623939514160156 35.6910285949707 3.965419769287109 32.95233154296875 2.807041168212891 C 30.1174201965332 1.607978820800781 27.10541915893555 1 24 1 M 24 0 C 37.25482940673828 0 48 10.74517059326172 48 24 C 48 37.25482940673828 37.25482940673828 48 24 48 C 10.74517059326172 48 0 37.25482940673828 0 24 C 0 10.74517059326172 10.74517059326172 0 24 0 Z" stroke="none" fill="rgba(39,93,56,0.2)"/>
  </g>
  <g id="clock" transform="translate(22.665 22.665)">
    <g id="clock-2" data-name="clock" transform="translate(-11 -11)">
      <path id="Path_471" data-name="Path 471" d="M13.335,1A12.335,12.335,0,1,0,25.67,13.335,12.335,12.335,0,0,0,13.335,1Zm0,22.427A10.092,10.092,0,1,1,23.427,13.335,10.092,10.092,0,0,1,13.335,23.427Z" transform="translate(-1 -1)" fill="#275d38" stroke="#682145" stroke-width="0.5"/>
      <path id="Path_472" data-name="Path 472" d="M13,11.586V6a1,1,0,0,0-2,0v6a1,1,0,0,0,.293.707l3,3a1,1,0,1,0,1.414-1.414Z" transform="translate(0.571 -0.029)" fill="#275d38" stroke="#682145" stroke-width="0.5"/>
    </g>
  </g>
</svg>
