<svg xmlns="http://www.w3.org/2000/svg" width="48" height="48" viewBox="0 0 48 48">
  <g id="serves" transform="translate(-1002 -241)">
    <g id="Path_477" data-name="Path 477" transform="translate(1002 241)" fill="none">
      <path d="M24,0A24,24,0,1,1,0,24,24,24,0,0,1,24,0Z" stroke="none"/>
      <path d="M 24 1 C 20.89458084106445 1 17.8825798034668 1.607978820800781 15.04766845703125 2.807041168212891 C 12.3089714050293 3.965419769287109 9.849151611328125 5.623939514160156 7.736549377441406 7.736549377441406 C 5.623939514160156 9.849151611328125 3.965419769287109 12.3089714050293 2.807041168212891 15.04766845703125 C 1.607978820800781 17.8825798034668 1 20.89458084106445 1 24 C 1 27.10541915893555 1.607978820800781 30.1174201965332 2.807041168212891 32.95233154296875 C 3.965419769287109 35.6910285949707 5.623939514160156 38.15084838867188 7.736549377441406 40.26345062255859 C 9.849151611328125 42.37606048583984 12.3089714050293 44.03458023071289 15.04766845703125 45.19295883178711 C 17.8825798034668 46.39202117919922 20.89458084106445 47 24 47 C 27.10541915893555 47 30.1174201965332 46.39202117919922 32.95233154296875 45.19295883178711 C 35.6910285949707 44.03458023071289 38.15084838867188 42.37606048583984 40.26345062255859 40.26345062255859 C 42.37606048583984 38.15084838867188 44.03458023071289 35.6910285949707 45.19295883178711 32.95233154296875 C 46.39202117919922 30.1174201965332 47 27.10541915893555 47 24 C 47 20.89458084106445 46.39202117919922 17.8825798034668 45.19295883178711 15.04766845703125 C 44.03458023071289 12.3089714050293 42.37606048583984 9.849151611328125 40.26345062255859 7.736549377441406 C 38.15084838867188 5.623939514160156 35.6910285949707 3.965419769287109 32.95233154296875 2.807041168212891 C 30.1174201965332 1.607978820800781 27.10541915893555 1 24 1 M 24 0 C 37.25482940673828 0 48 10.74517059326172 48 24 C 48 37.25482940673828 37.25482940673828 48 24 48 C 10.74517059326172 48 0 37.25482940673828 0 24 C 0 10.74517059326172 10.74517059326172 0 24 0 Z" stroke="none" fill="rgba(39,93,56,0.2)"/>
    </g>
    <g id="serve" transform="translate(1013.605 193.546)">
      <g id="Group_223" data-name="Group 223" transform="translate(0 61.397)">
        <path id="Path_470" data-name="Path 470" d="M24.188,75.287a.674.674,0,0,0-.53-.339A11.563,11.563,0,0,0,14.4,64.3a2.252,2.252,0,0,0-2.255-2.9,2.283,2.283,0,0,0-2.255,2.9A11.571,11.571,0,0,0,.617,74.948.671.671,0,0,0,.1,75.971l2.165,3.512a.671.671,0,0,0,.573.32H21.43a.671.671,0,0,0,.573-.32l2.165-3.512A.662.662,0,0,0,24.188,75.287ZM12.137,62.744a.945.945,0,0,1,.9,1.367c-.3-.024-.6-.038-.9-.038s-.6.014-.9.038A.934.934,0,0,1,12.137,62.744Zm0,2.681A10.2,10.2,0,0,1,22.3,74.943H1.969A10.2,10.2,0,0,1,12.137,65.425Zm8.921,13.03H3.216L1.883,76.291H22.391Z" transform="translate(0 -61.397)" fill="#275d38"/>
      </g>
    </g>
  </g>
</svg>
